# xmcd
#
# Track frame offsets: 
#        150
#        24665
#        27582
#        46663
#        64774
#        85972
#        108990
#        129997
#        135575
#        155986
#        177320
#        204401
#        229760
#        254289
#        273902
#        297692
#        318608
#
# Disc length: 4486 seconds
#
# Revision: 2
# Processed by: cddbd v1.5.2PL0 Copyright (c) Steve Scherf et al.
# Submitted via: ExactAudioCopy v1.0b2
#
DISCID=fa118411
DTITLE=Brownside - The Take Over
DYEAR=2006
DGENRE=Sureño Rap
TTITLE0=La Despedida
TTITLE1=Skit - Gang Related
TTITLE2=Put Up Shut Up
TTITLE3=City Of Bangers
TTITLE4=Brownside/Chris Gunn - It Ain't Easy
TTITLE5=Check 'Em
TTITLE6=Who We Are
TTITLE7=Skit
TTITLE8=Life Of A G
TTITLE9=Outlaw
TTITLE10=Growin' Up
TTITLE11=Hood Rat
TTITLE12=Brownside/Darvy Taylor - It's All Good
TTITLE13=Loosing My Mind
TTITLE14=Standing By Your Grave
TTITLE15=Brownside/Chris Gunn - Last Laugh
TTITLE16=Lil Homies
EXTD=
EXTT0=
EXTT1=
EXTT2=
EXTT3=
EXTT4=
EXTT5=
EXTT6=
EXTT7=
EXTT8=
EXTT9=
EXTT10=
EXTT11=
EXTT12=
EXTT13=
EXTT14=
EXTT15=
EXTT16=
PLAYORDER=
